<svg width="408" height="528" viewBox="0 0 408 528" fill="none" xmlns="http://www.w3.org/2000/svg">
<g clip-path="url(#clip0_1424_2)">
<path fill-rule="evenodd" clip-rule="evenodd" d="M329.054 0.856911H226.224C224.331 0.856911 222.797 2.39151 222.797 4.28455V34.2764C222.797 36.1695 224.331 37.7041 226.224 37.7041H329.054C330.947 37.7041 332.481 36.1695 332.481 34.2764V4.28455C332.481 2.39152 330.947 0.856911 329.054 0.856911ZM226.224 0C223.858 0 221.94 1.91825 221.94 4.28455V34.2764C221.94 36.6427 223.858 38.561 226.224 38.561H329.054C331.42 38.561 333.338 36.6427 333.338 34.2764V4.28455C333.338 1.91826 331.42 0 329.054 0H226.224Z" fill="black"/>
<path fill-rule="evenodd" clip-rule="evenodd" d="M107.114 262.212H4.28455C2.39152 262.212 0.856911 263.747 0.856911 265.64V295.632C0.856911 297.525 2.39152 299.059 4.28455 299.059H107.114C109.007 299.059 110.541 297.525 110.541 295.632V265.64C110.541 263.747 109.007 262.212 107.114 262.212ZM4.28455 261.355C1.91826 261.355 0 263.274 0 265.64V295.632C0 297.998 1.91826 299.916 4.28455 299.916H107.114C109.48 299.916 111.398 297.998 111.398 295.632V265.64C111.398 263.274 109.48 261.355 107.114 261.355H4.28455Z" fill="black"/>
<path fill-rule="evenodd" clip-rule="evenodd" d="M137.637 19.4297L138.288 19.9874L133.385 25.7069L138.288 31.4264L137.637 31.9841L132.257 25.7069L137.637 19.4297Z" fill="black"/>
<path fill-rule="evenodd" clip-rule="evenodd" d="M207 26.4272H133V25.5703H207V26.4272Z" fill="black"/>
<path fill-rule="evenodd" clip-rule="evenodd" d="M402.216 31.9841L401.566 31.4264L406.468 25.7069L401.566 19.9873L402.216 19.4297L407.597 25.7069L402.216 31.9841Z" fill="black"/>
<path fill-rule="evenodd" clip-rule="evenodd" d="M346 25.5703H407V26.4272H346V25.5703Z" fill="black"/>
<path d="M133.678 59.1289H407.89V527.002H133.678V59.1289Z" fill="#F7F7F7"/>
<path fill-rule="evenodd" clip-rule="evenodd" d="M407.033 59.9858H134.535V526.145H407.033V59.9858ZM133.678 59.1289V527.002H407.89V59.1289H133.678Z" fill="black"/>
<path fill-rule="evenodd" clip-rule="evenodd" d="M105.275 63.8141L104.718 64.4647L98.9984 59.5623L93.2788 64.4647L92.7212 63.8141L98.9984 58.4336L105.275 63.8141Z" fill="black"/>
<path fill-rule="evenodd" clip-rule="evenodd" d="M98.5713 243V59H99.4282V243H98.5713Z" fill="black"/>
<path fill-rule="evenodd" clip-rule="evenodd" d="M92.2676 522.182L92.8252 521.531L98.5448 526.434L104.264 521.531L104.822 522.182L98.5448 527.562L92.2676 522.182Z" fill="black"/>
<path fill-rule="evenodd" clip-rule="evenodd" d="M99.4287 320V527H98.5718V320H99.4287Z" fill="black"/>
</g>
<defs>
<clipPath id="clip0_1424_2">
<rect width="408" height="528" fill="white"/>
</clipPath>
</defs>
</svg>
